<?xml version="1.0" encoding="utf-8"?>
<!-- Generator: Adobe Illustrator 16.0.0, SVG Export Plug-In . SVG Version: 6.00 Build 0)  -->
<!DOCTYPE svg PUBLIC "-//W3C//DTD SVG 1.0//EN" "http://www.w3.org/TR/2001/REC-SVG-20010904/DTD/svg10.dtd">
<svg version="1.0" id="Layer_1" xmlns="http://www.w3.org/2000/svg" xmlns:xlink="http://www.w3.org/1999/xlink" x="0px" y="0px"
	 width="138.027px" height="114.586px" viewBox="0 0 138.027 114.586" enable-background="new 0 0 138.027 114.586"
	 xml:space="preserve">
<path fill="#EF463B" d="M39.515,56.248c6.447-2.186,12.915-3.426,19.875-4.541l0.127-0.014l1.714-0.17
	c0,0-6.636,30.771-25.207,45.672c-18.57,14.9-38.068-0.834-30.032-17.939C11.4,67.744,25.279,60.605,39.515,56.248z"/>
<path fill="#F68525" d="M59.42,47.873l-0.128,0.004c-7.044-0.26-13.614-0.701-20.28-2.086c-14.661-2.592-29.307-7.984-36.077-18.75
	c-10.062-16,7.373-33.994,27.621-21.467s30.586,42.26,30.586,42.26l-1.633,0.043L59.42,47.873z"/>
<path fill="#50B848" d="M87.881,45.527c-6.584,1.729-13.122,2.518-20.144,3.145l-0.128,0.002l-1.721,0.051
	c0,0,8.767-30.232,28.332-43.801c19.565-13.57,37.917,3.486,28.706,19.992C116.73,36.02,102.387,42.172,87.881,45.527z"/>
<path fill="#3372B9" d="M80.838,65.205l0.127,0.004c7.009,0.75,13.532,1.65,20.084,3.494c14.445,3.609,28.679,10.012,34.681,21.221
	c8.922,16.664-9.726,33.396-29.05,19.486C87.355,95.504,79.117,65.123,79.117,65.123l1.631,0.07L80.838,65.205z"/>
</svg>
