<svg xmlns="http://www.w3.org/2000/svg" width="109" height="15.197" viewBox="-25.5 0 109 15.197"><path d="M-17.507 12.195l-4.954 3.002 1.313-5.628-4.353-3.79 5.74-.49L-17.506 0l2.25 5.29 5.742.49-4.353 3.79 1.313 5.627-4.952-3.002z" fill="#41913A"/><path d="M5.746 12.195L.793 15.197 2.106 9.57l-4.353-3.79 5.74-.49L5.747 0l2.252 5.29 5.74.49-4.352 3.79 1.313 5.627-4.954-3.002z" fill="#CACDCE"/><path d="M29 12.195l-4.954 3.002L25.36 9.57l-4.353-3.79 5.74-.49L29 0l2.25 5.29 5.742.49-4.353 3.79 1.312 5.627L29 12.195z" fill="#333"/><path d="M52.254 12.195L47.3 15.197l1.314-5.628-4.354-3.79L50 5.29 52.255 0" fill="#41913A"/><path d="M52.254 0l2.25 5.29 5.742.49-4.353 3.79 1.313 5.627-4.953-3.002" fill="#CACDCE"/><g><path d="M75.507 12.195l-4.954 3.002 1.314-5.628-4.353-3.79 5.74-.49L75.508 0" fill="#41913A"/><path d="M75.507 0l2.25 5.29 5.743.49-4.353 3.79 1.313 5.627-4.954-3.002" fill="#333"/></g></svg>